<mxfile host="app.diagrams.net" agent="Mozilla/5.0 (Windows NT 10.0; Win64; x64) AppleWebKit/537.36 (KHTML, like Gecko) Chrome/141.0.0.0 Safari/537.36" version="28.2.8">
  <diagram name="Page-1" id="3rr8zd-kUJtvjhBN6Oir">
    <mxGraphModel dx="2084" dy="1148" grid="1" gridSize="10" guides="1" tooltips="1" connect="1" arrows="1" fold="1" page="1" pageScale="1" pageWidth="850" pageHeight="1100" math="0" shadow="0">
      <root>
        <mxCell id="0" />
        <mxCell id="1" parent="0" />
        <mxCell id="PY__qjqev0msR3YaQkG4-200" value="Khách hàng" style="shape=umlActor;verticalLabelPosition=bottom;verticalAlign=top;html=1;outlineConnect=0;" parent="1" vertex="1">
          <mxGeometry x="70" y="270" width="30" height="60" as="geometry" />
        </mxCell>
        <mxCell id="PY__qjqev0msR3YaQkG4-201" value="Tài xế" style="shape=umlActor;verticalLabelPosition=bottom;verticalAlign=top;html=1;outlineConnect=0;" parent="1" vertex="1">
          <mxGeometry x="70" y="450" width="30" height="60" as="geometry" />
        </mxCell>
        <mxCell id="PY__qjqev0msR3YaQkG4-202" value="" style="rounded=0;whiteSpace=wrap;html=1;" parent="1" vertex="1">
          <mxGeometry x="200" y="210" width="450" height="570" as="geometry" />
        </mxCell>
        <mxCell id="PY__qjqev0msR3YaQkG4-203" value="Xem vị trí tài xế" style="ellipse;whiteSpace=wrap;html=1;" parent="1" vertex="1">
          <mxGeometry x="490" y="250" width="120" height="80" as="geometry" />
        </mxCell>
        <mxCell id="PY__qjqev0msR3YaQkG4-204" value="Đặt xe" style="ellipse;whiteSpace=wrap;html=1;" parent="1" vertex="1">
          <mxGeometry x="250" y="240" width="120" height="80" as="geometry" />
        </mxCell>
        <mxCell id="PY__qjqev0msR3YaQkG4-205" value="Thanh toán" style="ellipse;whiteSpace=wrap;html=1;" parent="1" vertex="1">
          <mxGeometry x="440" y="430" width="120" height="80" as="geometry" />
        </mxCell>
        <mxCell id="PY__qjqev0msR3YaQkG4-206" value="Nhận khuyến mãi" style="ellipse;whiteSpace=wrap;html=1;" parent="1" vertex="1">
          <mxGeometry x="275" y="540" width="120" height="80" as="geometry" />
        </mxCell>
        <mxCell id="PY__qjqev0msR3YaQkG4-207" value="Hệ thống thanh toán" style="shape=umlActor;verticalLabelPosition=bottom;verticalAlign=top;html=1;outlineConnect=0;" parent="1" vertex="1">
          <mxGeometry x="720" y="390" width="30" height="60" as="geometry" />
        </mxCell>
        <mxCell id="PY__qjqev0msR3YaQkG4-208" value="" style="endArrow=none;html=1;" parent="1" source="PY__qjqev0msR3YaQkG4-200" target="PY__qjqev0msR3YaQkG4-204" edge="1">
          <mxGeometry width="50" height="50" relative="1" as="geometry" />
        </mxCell>
        <mxCell id="PY__qjqev0msR3YaQkG4-210" value="" style="endArrow=none;html=1;" parent="1" source="PY__qjqev0msR3YaQkG4-205" target="PY__qjqev0msR3YaQkG4-207" edge="1">
          <mxGeometry width="50" height="50" relative="1" as="geometry" />
        </mxCell>
        <mxCell id="PY__qjqev0msR3YaQkG4-212" value="Hệ thống đặt xe" style="text;html=1;align=center;verticalAlign=middle;whiteSpace=wrap;rounded=0;" parent="1" vertex="1">
          <mxGeometry x="395" y="210" width="105" height="30" as="geometry" />
        </mxCell>
        <mxCell id="PY__qjqev0msR3YaQkG4-214" value="" style="endArrow=none;html=1;rounded=0;entryX=0.5;entryY=0.5;entryDx=0;entryDy=0;entryPerimeter=0;" parent="1" source="PY__qjqev0msR3YaQkG4-205" target="PY__qjqev0msR3YaQkG4-201" edge="1">
          <mxGeometry width="50" height="50" relative="1" as="geometry">
            <mxPoint x="430" y="570" as="sourcePoint" />
            <mxPoint x="480" y="520" as="targetPoint" />
          </mxGeometry>
        </mxCell>
        <mxCell id="PY__qjqev0msR3YaQkG4-216" value="" style="endArrow=none;dashed=1;html=1;rounded=0;" parent="1" source="PY__qjqev0msR3YaQkG4-206" target="PY__qjqev0msR3YaQkG4-204" edge="1">
          <mxGeometry width="50" height="50" relative="1" as="geometry">
            <mxPoint x="430" y="570" as="sourcePoint" />
            <mxPoint x="480" y="520" as="targetPoint" />
          </mxGeometry>
        </mxCell>
        <mxCell id="PY__qjqev0msR3YaQkG4-220" value="&amp;lt;&amp;lt;Extend&amp;gt;&amp;gt;" style="edgeLabel;html=1;align=center;verticalAlign=middle;resizable=0;points=[];" parent="PY__qjqev0msR3YaQkG4-216" vertex="1" connectable="0">
          <mxGeometry x="0.0996" y="-1" relative="1" as="geometry">
            <mxPoint x="-1" as="offset" />
          </mxGeometry>
        </mxCell>
        <mxCell id="PY__qjqev0msR3YaQkG4-217" value="" style="endArrow=none;dashed=1;html=1;rounded=0;entryX=1;entryY=0.5;entryDx=0;entryDy=0;" parent="1" source="PY__qjqev0msR3YaQkG4-203" target="PY__qjqev0msR3YaQkG4-204" edge="1">
          <mxGeometry width="50" height="50" relative="1" as="geometry">
            <mxPoint x="430" y="570" as="sourcePoint" />
            <mxPoint x="480" y="520" as="targetPoint" />
          </mxGeometry>
        </mxCell>
        <mxCell id="PY__qjqev0msR3YaQkG4-219" value="&amp;lt;&amp;lt;Extend&amp;gt;&amp;gt;" style="edgeLabel;html=1;align=center;verticalAlign=middle;resizable=0;points=[];" parent="PY__qjqev0msR3YaQkG4-217" vertex="1" connectable="0">
          <mxGeometry x="-0.0431" relative="1" as="geometry">
            <mxPoint as="offset" />
          </mxGeometry>
        </mxCell>
        <mxCell id="PY__qjqev0msR3YaQkG4-218" value="" style="endArrow=none;html=1;rounded=0;entryX=1;entryY=1;entryDx=0;entryDy=0;" parent="1" source="PY__qjqev0msR3YaQkG4-205" target="PY__qjqev0msR3YaQkG4-204" edge="1">
          <mxGeometry width="50" height="50" relative="1" as="geometry">
            <mxPoint x="430" y="570" as="sourcePoint" />
            <mxPoint x="480" y="520" as="targetPoint" />
          </mxGeometry>
        </mxCell>
      </root>
    </mxGraphModel>
  </diagram>
</mxfile>
